<mxfile host="app.diagrams.net" modified="2022-05-22T07:32:52.491Z" agent="5.0 (Windows NT 10.0; Win64; x64) AppleWebKit/537.36 (KHTML, like Gecko) Chrome/100.0.4896.151 Whale/3.14.134.62 Safari/537.36" etag="01SJ9s9mW1E_-umHkrMI" version="18.1.1" type="github">
  <diagram id="C5RBs43oDa-KdzZeNtuy" name="Page-1">
    <mxGraphModel dx="2565" dy="2140" grid="1" gridSize="10" guides="1" tooltips="1" connect="1" arrows="1" fold="1" page="1" pageScale="1" pageWidth="827" pageHeight="1169" math="0" shadow="0">
      <root>
        <mxCell id="WIyWlLk6GJQsqaUBKTNV-0" />
        <mxCell id="WIyWlLk6GJQsqaUBKTNV-1" parent="WIyWlLk6GJQsqaUBKTNV-0" />
        <mxCell id="WIyWlLk6GJQsqaUBKTNV-3" value="사용자 감지됨" style="rounded=1;whiteSpace=wrap;html=1;fontSize=18;glass=0;strokeWidth=1;shadow=0;fillColor=#B2C9AB;strokeColor=#788AA3;fontColor=#46495D;fontStyle=1;verticalAlign=middle;horizontal=1;" parent="WIyWlLk6GJQsqaUBKTNV-1" vertex="1">
          <mxGeometry x="105.18" y="-22.87" width="165.36" height="65.87" as="geometry" />
        </mxCell>
        <mxCell id="w0Yd1vq2z6F1_iMxDuXJ-2" value="사용 시작&lt;br style=&quot;font-size: 18px;&quot;&gt;버튼 눌림" style="rounded=0;whiteSpace=wrap;html=1;fillColor=#B2C9AB;strokeColor=#788AA3;fontColor=#46495D;fontStyle=1;fontSize=18;verticalAlign=middle;horizontal=1;" parent="WIyWlLk6GJQsqaUBKTNV-1" vertex="1">
          <mxGeometry x="124.64285714285717" y="194.954128440367" width="126.42857142857143" height="68.80733944954129" as="geometry" />
        </mxCell>
        <mxCell id="w0Yd1vq2z6F1_iMxDuXJ-4" value="목적지 선택" style="rounded=0;whiteSpace=wrap;html=1;fillColor=#B2C9AB;strokeColor=#788AA3;fontColor=#46495D;fontStyle=1;fontSize=18;verticalAlign=middle;horizontal=1;" parent="WIyWlLk6GJQsqaUBKTNV-1" vertex="1">
          <mxGeometry x="124.64285714285717" y="298.1651376146789" width="126.42857142857143" height="68.80733944954129" as="geometry" />
        </mxCell>
        <mxCell id="w0Yd1vq2z6F1_iMxDuXJ-32" style="edgeStyle=orthogonalEdgeStyle;rounded=0;orthogonalLoop=1;jettySize=auto;html=1;exitX=0.5;exitY=1;exitDx=0;exitDy=0;entryX=0.5;entryY=0;entryDx=0;entryDy=0;strokeColor=#788AA3;fontColor=#46495D;fontStyle=1;fontSize=18;verticalAlign=middle;horizontal=1;" parent="WIyWlLk6GJQsqaUBKTNV-1" source="w0Yd1vq2z6F1_iMxDuXJ-2" target="w0Yd1vq2z6F1_iMxDuXJ-4" edge="1">
          <mxGeometry relative="1" as="geometry" />
        </mxCell>
        <mxCell id="w0Yd1vq2z6F1_iMxDuXJ-6" value="최적 경로 계산" style="shape=process;whiteSpace=wrap;html=1;backgroundOutline=1;fillColor=#B2C9AB;strokeColor=#788AA3;fontColor=#46495D;fontStyle=1;fontSize=18;verticalAlign=middle;horizontal=1;" parent="WIyWlLk6GJQsqaUBKTNV-1" vertex="1">
          <mxGeometry x="124.64285714285717" y="401.3761467889908" width="126.42857142857143" height="68.80733944954129" as="geometry" />
        </mxCell>
        <mxCell id="w0Yd1vq2z6F1_iMxDuXJ-34" style="edgeStyle=orthogonalEdgeStyle;rounded=0;orthogonalLoop=1;jettySize=auto;html=1;exitX=0.5;exitY=1;exitDx=0;exitDy=0;entryX=0.5;entryY=0;entryDx=0;entryDy=0;strokeColor=#788AA3;fontColor=#46495D;fontStyle=1;fontSize=18;verticalAlign=middle;horizontal=1;" parent="WIyWlLk6GJQsqaUBKTNV-1" source="w0Yd1vq2z6F1_iMxDuXJ-4" target="w0Yd1vq2z6F1_iMxDuXJ-6" edge="1">
          <mxGeometry relative="1" as="geometry" />
        </mxCell>
        <mxCell id="w0Yd1vq2z6F1_iMxDuXJ-26" value="" style="edgeStyle=orthogonalEdgeStyle;rounded=0;orthogonalLoop=1;jettySize=auto;html=1;strokeColor=#788AA3;fontColor=#46495D;fontStyle=1;fontSize=18;verticalAlign=middle;horizontal=1;" parent="WIyWlLk6GJQsqaUBKTNV-1" source="w0Yd1vq2z6F1_iMxDuXJ-23" target="w0Yd1vq2z6F1_iMxDuXJ-2" edge="1">
          <mxGeometry relative="1" as="geometry" />
        </mxCell>
        <mxCell id="w0Yd1vq2z6F1_iMxDuXJ-23" value="주변에 기기가 있음&lt;br style=&quot;font-size: 18px;&quot;&gt;음성 안내" style="rounded=0;whiteSpace=wrap;html=1;fillColor=#B2C9AB;strokeColor=#788AA3;fontColor=#46495D;fontStyle=1;fontSize=18;verticalAlign=middle;horizontal=1;" parent="WIyWlLk6GJQsqaUBKTNV-1" vertex="1">
          <mxGeometry x="124.64285714285717" y="80.27522935779817" width="126.42857142857143" height="68.80733944954129" as="geometry" />
        </mxCell>
        <mxCell id="w0Yd1vq2z6F1_iMxDuXJ-22" value="" style="edgeStyle=orthogonalEdgeStyle;rounded=0;orthogonalLoop=1;jettySize=auto;html=1;entryX=0.5;entryY=0;entryDx=0;entryDy=0;strokeColor=#788AA3;fontColor=#46495D;fontStyle=1;fontSize=18;verticalAlign=middle;horizontal=1;" parent="WIyWlLk6GJQsqaUBKTNV-1" source="WIyWlLk6GJQsqaUBKTNV-3" target="w0Yd1vq2z6F1_iMxDuXJ-23" edge="1">
          <mxGeometry relative="1" as="geometry">
            <mxPoint x="187.8571428571429" y="91.74311926605505" as="targetPoint" />
          </mxGeometry>
        </mxCell>
        <mxCell id="w0Yd1vq2z6F1_iMxDuXJ-27" value="목적지 버튼&lt;br&gt;위치&lt;br style=&quot;font-size: 18px;&quot;&gt;음성 안내" style="whiteSpace=wrap;html=1;rounded=0;fillColor=#B2C9AB;strokeColor=#788AA3;fontColor=#46495D;fontStyle=1;fontSize=18;verticalAlign=middle;horizontal=1;" parent="WIyWlLk6GJQsqaUBKTNV-1" vertex="1">
          <mxGeometry x="293.2142857142858" y="194.954128440367" width="126.42857142857143" height="68.80733944954129" as="geometry" />
        </mxCell>
        <mxCell id="w0Yd1vq2z6F1_iMxDuXJ-28" value="" style="edgeStyle=orthogonalEdgeStyle;rounded=0;orthogonalLoop=1;jettySize=auto;html=1;strokeColor=#788AA3;fontColor=#46495D;fontStyle=1;fontSize=18;verticalAlign=middle;horizontal=1;" parent="WIyWlLk6GJQsqaUBKTNV-1" source="w0Yd1vq2z6F1_iMxDuXJ-2" target="w0Yd1vq2z6F1_iMxDuXJ-27" edge="1">
          <mxGeometry relative="1" as="geometry" />
        </mxCell>
        <mxCell id="w0Yd1vq2z6F1_iMxDuXJ-30" value="선택된 목적지&lt;br style=&quot;font-size: 18px;&quot;&gt;음성 안내&lt;br style=&quot;font-size: 18px;&quot;&gt;사용 방법 안내" style="whiteSpace=wrap;html=1;rounded=0;fillColor=#B2C9AB;strokeColor=#788AA3;fontColor=#46495D;fontStyle=1;fontSize=18;verticalAlign=middle;horizontal=1;" parent="WIyWlLk6GJQsqaUBKTNV-1" vertex="1">
          <mxGeometry x="293.2142857142858" y="298.1651376146789" width="126.42857142857143" height="68.80733944954129" as="geometry" />
        </mxCell>
        <mxCell id="w0Yd1vq2z6F1_iMxDuXJ-33" style="edgeStyle=orthogonalEdgeStyle;rounded=0;orthogonalLoop=1;jettySize=auto;html=1;entryX=0;entryY=0.5;entryDx=0;entryDy=0;strokeColor=#788AA3;fontColor=#46495D;fontStyle=1;fontSize=18;verticalAlign=middle;horizontal=1;" parent="WIyWlLk6GJQsqaUBKTNV-1" source="w0Yd1vq2z6F1_iMxDuXJ-4" target="w0Yd1vq2z6F1_iMxDuXJ-30" edge="1">
          <mxGeometry relative="1" as="geometry" />
        </mxCell>
        <mxCell id="w0Yd1vq2z6F1_iMxDuXJ-35" value="현재 위치 파악" style="whiteSpace=wrap;html=1;rounded=0;fillColor=#B2C9AB;strokeColor=#788AA3;fontColor=#46495D;fontStyle=1;fontSize=18;verticalAlign=middle;horizontal=1;" parent="WIyWlLk6GJQsqaUBKTNV-1" vertex="1">
          <mxGeometry x="503.92857142857144" y="126.14678899082568" width="126.42857142857143" height="68.80733944954129" as="geometry" />
        </mxCell>
        <mxCell id="w0Yd1vq2z6F1_iMxDuXJ-36" value="" style="edgeStyle=orthogonalEdgeStyle;rounded=0;orthogonalLoop=1;jettySize=auto;html=1;strokeColor=#788AA3;fontColor=#46495D;fontStyle=1;fontSize=18;verticalAlign=middle;horizontal=1;" parent="WIyWlLk6GJQsqaUBKTNV-1" source="w0Yd1vq2z6F1_iMxDuXJ-27" target="w0Yd1vq2z6F1_iMxDuXJ-35" edge="1">
          <mxGeometry relative="1" as="geometry" />
        </mxCell>
        <mxCell id="cZUZvH5OgQYUb_iR2aVf-5" value="" style="edgeStyle=orthogonalEdgeStyle;rounded=0;orthogonalLoop=1;jettySize=auto;html=1;fontSize=18;" edge="1" parent="WIyWlLk6GJQsqaUBKTNV-1" source="w0Yd1vq2z6F1_iMxDuXJ-37" target="cZUZvH5OgQYUb_iR2aVf-4">
          <mxGeometry relative="1" as="geometry" />
        </mxCell>
        <mxCell id="w0Yd1vq2z6F1_iMxDuXJ-37" value="현재 방향 파악" style="whiteSpace=wrap;html=1;rounded=0;fillColor=#B2C9AB;strokeColor=#788AA3;fontColor=#46495D;fontStyle=1;fontSize=18;verticalAlign=middle;horizontal=1;" parent="WIyWlLk6GJQsqaUBKTNV-1" vertex="1">
          <mxGeometry x="503.92857142857144" y="252.29357798165137" width="126.42857142857143" height="68.80733944954129" as="geometry" />
        </mxCell>
        <mxCell id="w0Yd1vq2z6F1_iMxDuXJ-38" value="" style="edgeStyle=orthogonalEdgeStyle;rounded=0;orthogonalLoop=1;jettySize=auto;html=1;strokeColor=#788AA3;fontColor=#46495D;fontStyle=1;fontSize=18;verticalAlign=middle;horizontal=1;" parent="WIyWlLk6GJQsqaUBKTNV-1" source="w0Yd1vq2z6F1_iMxDuXJ-27" target="w0Yd1vq2z6F1_iMxDuXJ-37" edge="1">
          <mxGeometry relative="1" as="geometry" />
        </mxCell>
        <mxCell id="w0Yd1vq2z6F1_iMxDuXJ-39" style="edgeStyle=orthogonalEdgeStyle;rounded=0;orthogonalLoop=1;jettySize=auto;html=1;entryX=0.5;entryY=1;entryDx=0;entryDy=0;strokeColor=#788AA3;fontColor=#46495D;fontStyle=1;fontSize=18;verticalAlign=middle;horizontal=1;" parent="WIyWlLk6GJQsqaUBKTNV-1" source="w0Yd1vq2z6F1_iMxDuXJ-35" target="w0Yd1vq2z6F1_iMxDuXJ-35" edge="1">
          <mxGeometry relative="1" as="geometry">
            <Array as="points">
              <mxPoint x="567.1428571428572" y="103.21100917431193" />
              <mxPoint x="683.0357142857142" y="103.21100917431193" />
              <mxPoint x="683.0357142857142" y="217.88990825688074" />
              <mxPoint x="567.1428571428572" y="217.88990825688074" />
            </Array>
          </mxGeometry>
        </mxCell>
        <mxCell id="w0Yd1vq2z6F1_iMxDuXJ-40" style="edgeStyle=orthogonalEdgeStyle;rounded=0;orthogonalLoop=1;jettySize=auto;html=1;entryX=0.5;entryY=1;entryDx=0;entryDy=0;strokeColor=#788AA3;fontColor=#46495D;fontStyle=1;fontSize=18;verticalAlign=middle;horizontal=1;" parent="WIyWlLk6GJQsqaUBKTNV-1" source="w0Yd1vq2z6F1_iMxDuXJ-37" target="w0Yd1vq2z6F1_iMxDuXJ-37" edge="1">
          <mxGeometry relative="1" as="geometry">
            <Array as="points">
              <mxPoint x="567.1428571428572" y="229.3577981651376" />
              <mxPoint x="672.5" y="229.3577981651376" />
              <mxPoint x="672.5" y="344.0366972477064" />
              <mxPoint x="567.1428571428572" y="344.0366972477064" />
            </Array>
          </mxGeometry>
        </mxCell>
        <mxCell id="w0Yd1vq2z6F1_iMxDuXJ-41" value="loop" style="text;html=1;strokeColor=none;fillColor=none;align=center;verticalAlign=middle;whiteSpace=wrap;rounded=0;fontColor=#46495D;fontStyle=1;fontSize=18;horizontal=1;" parent="WIyWlLk6GJQsqaUBKTNV-1" vertex="1">
          <mxGeometry x="672.5" y="149.08256880733944" width="63.214285714285715" height="22.93577981651376" as="geometry" />
        </mxCell>
        <mxCell id="w0Yd1vq2z6F1_iMxDuXJ-42" value="loop" style="text;html=1;strokeColor=none;fillColor=none;align=center;verticalAlign=middle;whiteSpace=wrap;rounded=0;fontColor=#46495D;fontStyle=1;fontSize=18;horizontal=1;" parent="WIyWlLk6GJQsqaUBKTNV-1" vertex="1">
          <mxGeometry x="672.5" y="275.22935779816515" width="63.214285714285715" height="22.93577981651376" as="geometry" />
        </mxCell>
        <mxCell id="w0Yd1vq2z6F1_iMxDuXJ-50" style="edgeStyle=orthogonalEdgeStyle;rounded=0;orthogonalLoop=1;jettySize=auto;html=1;exitX=0;exitY=0.5;exitDx=0;exitDy=0;entryX=1;entryY=0.5;entryDx=0;entryDy=0;strokeColor=#788AA3;fontColor=#46495D;fontStyle=1;fontSize=18;verticalAlign=middle;horizontal=1;" parent="WIyWlLk6GJQsqaUBKTNV-1" source="w0Yd1vq2z6F1_iMxDuXJ-47" target="w0Yd1vq2z6F1_iMxDuXJ-6" edge="1">
          <mxGeometry relative="1" as="geometry" />
        </mxCell>
        <mxCell id="w0Yd1vq2z6F1_iMxDuXJ-44" style="edgeStyle=orthogonalEdgeStyle;rounded=0;orthogonalLoop=1;jettySize=auto;html=1;exitX=0.25;exitY=1;exitDx=0;exitDy=0;entryX=0.5;entryY=0;entryDx=0;entryDy=0;strokeColor=#788AA3;fontColor=#46495D;fontStyle=1;fontSize=18;verticalAlign=middle;horizontal=1;" parent="WIyWlLk6GJQsqaUBKTNV-1" source="w0Yd1vq2z6F1_iMxDuXJ-35" target="w0Yd1vq2z6F1_iMxDuXJ-47" edge="1">
          <mxGeometry relative="1" as="geometry">
            <mxPoint x="440.7142857142858" y="458.7155963302752" as="targetPoint" />
            <Array as="points">
              <mxPoint x="536" y="240" />
              <mxPoint x="478" y="240" />
            </Array>
          </mxGeometry>
        </mxCell>
        <mxCell id="w0Yd1vq2z6F1_iMxDuXJ-53" value="Yes" style="text;html=1;strokeColor=none;fillColor=none;align=center;verticalAlign=middle;whiteSpace=wrap;rounded=0;fontColor=#46495D;fontStyle=1;fontSize=18;horizontal=1;" parent="WIyWlLk6GJQsqaUBKTNV-1" vertex="1">
          <mxGeometry x="282.67857142857144" y="424.3119266055046" width="42.142857142857146" as="geometry" />
        </mxCell>
        <mxCell id="w0Yd1vq2z6F1_iMxDuXJ-47" value="계산된 경로를&lt;br style=&quot;font-size: 18px;&quot;&gt;벗어 났는가?" style="rhombus;whiteSpace=wrap;html=1;fillColor=#B2C9AB;strokeColor=#788AA3;fontColor=#46495D;fontStyle=1;fontSize=18;verticalAlign=middle;horizontal=1;" parent="WIyWlLk6GJQsqaUBKTNV-1" vertex="1">
          <mxGeometry x="345.8928571428571" y="384.1743119266055" width="263.39285714285717" height="103.21100917431193" as="geometry" />
        </mxCell>
        <mxCell id="w0Yd1vq2z6F1_iMxDuXJ-55" value="현재 방향과&lt;br style=&quot;font-size: 18px;&quot;&gt;가야 할 방향이 다른가?" style="rhombus;whiteSpace=wrap;html=1;fillColor=#B2C9AB;strokeColor=#788AA3;fontColor=#46495D;fontStyle=1;fontSize=18;verticalAlign=middle;horizontal=1;" parent="WIyWlLk6GJQsqaUBKTNV-1" vertex="1">
          <mxGeometry x="428.71" y="590" width="276.85" height="130" as="geometry" />
        </mxCell>
        <mxCell id="w0Yd1vq2z6F1_iMxDuXJ-58" value="돌려야 할&lt;br&gt;방향까지&lt;br style=&quot;font-size: 18px;&quot;&gt;진동 피드백" style="whiteSpace=wrap;html=1;fillColor=#B2C9AB;strokeColor=#788AA3;fontColor=#46495D;fontStyle=1;fontSize=18;verticalAlign=middle;horizontal=1;" parent="WIyWlLk6GJQsqaUBKTNV-1" vertex="1">
          <mxGeometry x="750.0014285714286" y="487.38990825688074" width="126.42857142857143" height="68.80733944954129" as="geometry" />
        </mxCell>
        <mxCell id="w0Yd1vq2z6F1_iMxDuXJ-60" value="좌회전" style="rhombus;whiteSpace=wrap;html=1;fillColor=#B2C9AB;strokeColor=#788AA3;fontColor=#46495D;fontStyle=1;fontSize=18;verticalAlign=middle;horizontal=1;" parent="WIyWlLk6GJQsqaUBKTNV-1" vertex="1">
          <mxGeometry x="-177.73214285714286" y="28.6697247706422" width="189.64285714285714" height="91.74311926605505" as="geometry" />
        </mxCell>
        <mxCell id="w0Yd1vq2z6F1_iMxDuXJ-59" value="" style="edgeStyle=orthogonalEdgeStyle;rounded=0;orthogonalLoop=1;jettySize=auto;html=1;strokeColor=#788AA3;fontColor=#46495D;fontStyle=1;fontSize=18;verticalAlign=middle;horizontal=1;" parent="WIyWlLk6GJQsqaUBKTNV-1" source="w0Yd1vq2z6F1_iMxDuXJ-55" target="w0Yd1vq2z6F1_iMxDuXJ-58" edge="1">
          <mxGeometry relative="1" as="geometry" />
        </mxCell>
        <mxCell id="w0Yd1vq2z6F1_iMxDuXJ-63" value="우회전" style="rhombus;whiteSpace=wrap;html=1;fillColor=#B2C9AB;strokeColor=#788AA3;fontColor=#46495D;fontStyle=1;fontSize=18;verticalAlign=middle;horizontal=1;" parent="WIyWlLk6GJQsqaUBKTNV-1" vertex="1">
          <mxGeometry x="-172.46428571428572" y="143.34862385321102" width="179.10714285714286" height="91.74311926605505" as="geometry" />
        </mxCell>
        <mxCell id="w0Yd1vq2z6F1_iMxDuXJ-64" value="" style="edgeStyle=orthogonalEdgeStyle;rounded=0;orthogonalLoop=1;jettySize=auto;html=1;strokeColor=#788AA3;fontColor=#46495D;fontStyle=1;fontSize=18;verticalAlign=middle;horizontal=1;" parent="WIyWlLk6GJQsqaUBKTNV-1" source="w0Yd1vq2z6F1_iMxDuXJ-60" target="w0Yd1vq2z6F1_iMxDuXJ-63" edge="1">
          <mxGeometry relative="1" as="geometry" />
        </mxCell>
        <mxCell id="w0Yd1vq2z6F1_iMxDuXJ-74" style="edgeStyle=orthogonalEdgeStyle;rounded=0;orthogonalLoop=1;jettySize=auto;html=1;exitX=0;exitY=0.5;exitDx=0;exitDy=0;strokeColor=#788AA3;fontColor=#46495D;fontStyle=1;fontSize=18;verticalAlign=middle;horizontal=1;" parent="WIyWlLk6GJQsqaUBKTNV-1" edge="1">
          <mxGeometry relative="1" as="geometry">
            <mxPoint x="-178.43452380952365" y="303.51681957186554" as="targetPoint" />
            <mxPoint x="-177.73214285714286" y="303.89908256880733" as="sourcePoint" />
          </mxGeometry>
        </mxCell>
        <mxCell id="w0Yd1vq2z6F1_iMxDuXJ-67" value="No" style="text;html=1;strokeColor=none;fillColor=none;align=center;verticalAlign=middle;whiteSpace=wrap;rounded=0;fontColor=#46495D;fontStyle=1;fontSize=18;horizontal=1;" parent="WIyWlLk6GJQsqaUBKTNV-1" vertex="1">
          <mxGeometry x="-82.91071428571428" y="120.41284403669725" width="63.214285714285715" height="34.403669724770644" as="geometry" />
        </mxCell>
        <mxCell id="w0Yd1vq2z6F1_iMxDuXJ-85" value="" style="edgeStyle=orthogonalEdgeStyle;rounded=0;orthogonalLoop=1;jettySize=auto;html=1;exitX=0.5;exitY=1;exitDx=0;exitDy=0;strokeColor=#788AA3;fontColor=#46495D;fontStyle=1;fontSize=18;verticalAlign=middle;horizontal=1;" parent="WIyWlLk6GJQsqaUBKTNV-1" source="w0Yd1vq2z6F1_iMxDuXJ-63" target="w0Yd1vq2z6F1_iMxDuXJ-84" edge="1">
          <mxGeometry relative="1" as="geometry" />
        </mxCell>
        <mxCell id="w0Yd1vq2z6F1_iMxDuXJ-70" value="No" style="text;html=1;strokeColor=none;fillColor=none;align=center;verticalAlign=middle;whiteSpace=wrap;rounded=0;fontColor=#46495D;fontStyle=1;fontSize=18;horizontal=1;" parent="WIyWlLk6GJQsqaUBKTNV-1" vertex="1">
          <mxGeometry x="-72.375" y="235.09174311926606" width="63.214285714285715" height="34.403669724770644" as="geometry" />
        </mxCell>
        <mxCell id="w0Yd1vq2z6F1_iMxDuXJ-72" value="음성, 진동 피드백" style="rounded=0;whiteSpace=wrap;html=1;fillColor=#B2C9AB;strokeColor=#788AA3;fontColor=#46495D;fontStyle=1;fontSize=18;verticalAlign=middle;horizontal=1;" parent="WIyWlLk6GJQsqaUBKTNV-1" vertex="1">
          <mxGeometry x="-360" y="166.28440366972478" width="147.5" height="45.87155963302752" as="geometry" />
        </mxCell>
        <mxCell id="w0Yd1vq2z6F1_iMxDuXJ-71" style="edgeStyle=orthogonalEdgeStyle;rounded=0;orthogonalLoop=1;jettySize=auto;html=1;exitX=0;exitY=0.5;exitDx=0;exitDy=0;entryX=0.5;entryY=0;entryDx=0;entryDy=0;strokeColor=#788AA3;fontColor=#46495D;fontStyle=1;fontSize=18;verticalAlign=middle;horizontal=1;" parent="WIyWlLk6GJQsqaUBKTNV-1" source="w0Yd1vq2z6F1_iMxDuXJ-60" target="w0Yd1vq2z6F1_iMxDuXJ-72" edge="1">
          <mxGeometry relative="1" as="geometry">
            <mxPoint x="-219.875" y="74.15902140672792" as="targetPoint" />
          </mxGeometry>
        </mxCell>
        <mxCell id="w0Yd1vq2z6F1_iMxDuXJ-76" value="Yes" style="text;html=1;strokeColor=none;fillColor=none;align=center;verticalAlign=middle;whiteSpace=wrap;rounded=0;fontColor=#46495D;fontStyle=1;fontSize=18;horizontal=1;" parent="WIyWlLk6GJQsqaUBKTNV-1" vertex="1">
          <mxGeometry x="-240.94642857142856" y="43.0045871559633" width="42.142857142857146" height="22.93577981651376" as="geometry" />
        </mxCell>
        <mxCell id="w0Yd1vq2z6F1_iMxDuXJ-77" value="Yes" style="text;html=1;strokeColor=none;fillColor=none;align=center;verticalAlign=middle;whiteSpace=wrap;rounded=0;fontColor=#46495D;fontStyle=1;fontSize=18;horizontal=1;" parent="WIyWlLk6GJQsqaUBKTNV-1" vertex="1">
          <mxGeometry x="-209.33928571428572" y="200.6880733944954" width="42.142857142857146" height="22.93577981651376" as="geometry" />
        </mxCell>
        <mxCell id="w0Yd1vq2z6F1_iMxDuXJ-82" style="edgeStyle=orthogonalEdgeStyle;rounded=0;orthogonalLoop=1;jettySize=auto;html=1;exitX=1;exitY=0.5;exitDx=0;exitDy=0;entryX=1;entryY=0.5;entryDx=0;entryDy=0;strokeColor=#788AA3;fontColor=#46495D;fontStyle=1;fontSize=18;verticalAlign=middle;horizontal=1;" parent="WIyWlLk6GJQsqaUBKTNV-1" source="w0Yd1vq2z6F1_iMxDuXJ-78" target="w0Yd1vq2z6F1_iMxDuXJ-60" edge="1">
          <mxGeometry relative="1" as="geometry">
            <Array as="points">
              <mxPoint x="60" y="442" />
              <mxPoint x="60" y="74" />
            </Array>
          </mxGeometry>
        </mxCell>
        <mxCell id="w0Yd1vq2z6F1_iMxDuXJ-78" value="목적지에 도착했는가?" style="rhombus;whiteSpace=wrap;html=1;fillColor=#B2C9AB;strokeColor=#788AA3;fontColor=#46495D;fontStyle=1;fontSize=18;verticalAlign=middle;horizontal=1;" parent="WIyWlLk6GJQsqaUBKTNV-1" vertex="1">
          <mxGeometry x="-193.53571428571428" y="395.64220183486236" width="221.25" height="91.74311926605505" as="geometry" />
        </mxCell>
        <mxCell id="w0Yd1vq2z6F1_iMxDuXJ-73" style="edgeStyle=orthogonalEdgeStyle;rounded=0;orthogonalLoop=1;jettySize=auto;html=1;exitX=0;exitY=0.5;exitDx=0;exitDy=0;entryX=1;entryY=0.5;entryDx=0;entryDy=0;strokeColor=#788AA3;fontColor=#46495D;fontStyle=1;fontSize=18;verticalAlign=middle;horizontal=1;" parent="WIyWlLk6GJQsqaUBKTNV-1" source="w0Yd1vq2z6F1_iMxDuXJ-63" target="w0Yd1vq2z6F1_iMxDuXJ-72" edge="1">
          <mxGeometry relative="1" as="geometry" />
        </mxCell>
        <mxCell id="w0Yd1vq2z6F1_iMxDuXJ-83" value="No" style="text;html=1;strokeColor=none;fillColor=none;align=center;verticalAlign=middle;whiteSpace=wrap;rounded=0;fontColor=#46495D;fontStyle=1;fontSize=18;horizontal=1;" parent="WIyWlLk6GJQsqaUBKTNV-1" vertex="1">
          <mxGeometry x="11.912857142857167" y="409.99825688073395" width="63.214285714285715" height="34.403669724770644" as="geometry" />
        </mxCell>
        <mxCell id="w0Yd1vq2z6F1_iMxDuXJ-84" value="직진" style="whiteSpace=wrap;html=1;fillColor=#B2C9AB;strokeColor=#788AA3;fontColor=#46495D;fontStyle=1;fontSize=18;verticalAlign=middle;horizontal=1;" parent="WIyWlLk6GJQsqaUBKTNV-1" vertex="1">
          <mxGeometry x="-146.125" y="280.9633027522936" width="126.42857142857143" height="68.80733944954129" as="geometry" />
        </mxCell>
        <mxCell id="w0Yd1vq2z6F1_iMxDuXJ-79" value="" style="edgeStyle=orthogonalEdgeStyle;rounded=0;orthogonalLoop=1;jettySize=auto;html=1;exitX=0.5;exitY=1;exitDx=0;exitDy=0;strokeColor=#788AA3;fontColor=#46495D;fontStyle=1;fontSize=18;verticalAlign=middle;horizontal=1;" parent="WIyWlLk6GJQsqaUBKTNV-1" source="w0Yd1vq2z6F1_iMxDuXJ-84" target="w0Yd1vq2z6F1_iMxDuXJ-78" edge="1">
          <mxGeometry relative="1" as="geometry">
            <mxPoint x="-82.91071428571428" y="349.77064220183485" as="sourcePoint" />
          </mxGeometry>
        </mxCell>
        <mxCell id="w0Yd1vq2z6F1_iMxDuXJ-87" value="Yes" style="text;html=1;strokeColor=none;fillColor=none;align=center;verticalAlign=middle;whiteSpace=wrap;rounded=0;fontColor=#46495D;fontStyle=1;fontSize=18;horizontal=1;" parent="WIyWlLk6GJQsqaUBKTNV-1" vertex="1">
          <mxGeometry x="-72.375" y="498.8532110091743" width="42.142857142857146" height="22.93577981651376" as="geometry" />
        </mxCell>
        <mxCell id="cZUZvH5OgQYUb_iR2aVf-9" style="edgeStyle=orthogonalEdgeStyle;rounded=0;orthogonalLoop=1;jettySize=auto;html=1;exitX=1;exitY=0.5;exitDx=0;exitDy=0;entryX=0;entryY=0.5;entryDx=0;entryDy=0;fontSize=18;" edge="1" parent="WIyWlLk6GJQsqaUBKTNV-1" source="w0Yd1vq2z6F1_iMxDuXJ-91" target="WIyWlLk6GJQsqaUBKTNV-3">
          <mxGeometry relative="1" as="geometry">
            <Array as="points">
              <mxPoint x="80" y="579" />
              <mxPoint x="80" y="10" />
            </Array>
          </mxGeometry>
        </mxCell>
        <mxCell id="w0Yd1vq2z6F1_iMxDuXJ-91" value="목적지에&lt;br style=&quot;font-size: 18px;&quot;&gt;도착했습니다." style="rounded=1;whiteSpace=wrap;html=1;fillColor=#B2C9AB;strokeColor=#788AA3;fontColor=#46495D;fontStyle=1;fontSize=18;verticalAlign=middle;horizontal=1;" parent="WIyWlLk6GJQsqaUBKTNV-1" vertex="1">
          <mxGeometry x="-180.36607142857142" y="533.256880733945" width="194.91071428571428" height="91.74311926605505" as="geometry" />
        </mxCell>
        <mxCell id="w0Yd1vq2z6F1_iMxDuXJ-92" style="edgeStyle=orthogonalEdgeStyle;rounded=0;orthogonalLoop=1;jettySize=auto;html=1;exitX=0.5;exitY=1;exitDx=0;exitDy=0;entryX=0.5;entryY=0;entryDx=0;entryDy=0;strokeColor=#788AA3;fontColor=#46495D;fontStyle=1;fontSize=18;verticalAlign=middle;horizontal=1;" parent="WIyWlLk6GJQsqaUBKTNV-1" source="w0Yd1vq2z6F1_iMxDuXJ-78" target="w0Yd1vq2z6F1_iMxDuXJ-91" edge="1">
          <mxGeometry relative="1" as="geometry" />
        </mxCell>
        <mxCell id="cZUZvH5OgQYUb_iR2aVf-6" style="edgeStyle=orthogonalEdgeStyle;rounded=0;orthogonalLoop=1;jettySize=auto;html=1;exitX=0.5;exitY=1;exitDx=0;exitDy=0;entryX=0.5;entryY=0;entryDx=0;entryDy=0;fontSize=18;" edge="1" parent="WIyWlLk6GJQsqaUBKTNV-1" source="cZUZvH5OgQYUb_iR2aVf-4" target="w0Yd1vq2z6F1_iMxDuXJ-55">
          <mxGeometry relative="1" as="geometry" />
        </mxCell>
        <mxCell id="cZUZvH5OgQYUb_iR2aVf-4" value="현재 위치가&lt;br&gt;코너인가?" style="whiteSpace=wrap;html=1;rounded=0;fillColor=#B2C9AB;strokeColor=#788AA3;fontColor=#46495D;fontStyle=1;fontSize=18;verticalAlign=middle;horizontal=1;" vertex="1" parent="WIyWlLk6GJQsqaUBKTNV-1">
          <mxGeometry x="487.14" y="498.85" width="160" height="68.81" as="geometry" />
        </mxCell>
        <mxCell id="cZUZvH5OgQYUb_iR2aVf-7" value="Yes" style="text;html=1;strokeColor=none;fillColor=none;align=center;verticalAlign=middle;whiteSpace=wrap;rounded=0;fontColor=#46495D;fontStyle=1;fontSize=18;horizontal=1;" vertex="1" parent="WIyWlLk6GJQsqaUBKTNV-1">
          <mxGeometry x="735.7185714285714" y="640.0019266055047" width="42.142857142857146" as="geometry" />
        </mxCell>
      </root>
    </mxGraphModel>
  </diagram>
</mxfile>
